<?xml version="1.0" standalone="no"?><!DOCTYPE svg PUBLIC "-//W3C//DTD SVG 1.1//EN" "http://www.w3.org/Graphics/SVG/1.1/DTD/svg11.dtd"><svg t="1772194873726" class="icon" viewBox="0 0 1024 1024" version="1.1" xmlns="http://www.w3.org/2000/svg" p-id="15288" xmlns:xlink="http://www.w3.org/1999/xlink" width="128" height="128"><path d="M0 0m146.285714 0l731.428572 0q146.285714 0 146.285714 146.285714l0 731.428572q0 146.285714-146.285714 146.285714l-731.428572 0q-146.285714 0-146.285714-146.285714l0-731.428572q0-146.285714 146.285714-146.285714Z" fill="#FFFFFF" p-id="15289"></path><path d="M728.612571 446.72l72.777143 127.414857a16.091429 16.091429 0 0 1 0 17.700572l-37.961143 67.072a18.249143 18.249143 0 0 1-14.043428 8.850285h-65.572572l-73.398857 128.512a16.603429 16.603429 0 0 1-14.043428 8.301715h-84.260572a17.115429 17.115429 0 0 1-13.019428-8.374858l-35.84-62.354285H314.514286a17.115429 17.115429 0 0 1-14.592-8.301715l-37.924572-66.633142a18.651429 18.651429 0 0 1 0-16.64l33.28-58.258286-73.874285-128.475429a18.651429 18.651429 0 0 1 0-16.64l41.106285-72.777143a16.713143 16.713143 0 0 1 14.555429-7.826285h71.314286l74.349714-127.414857 1.243428-2.048c2.852571-5.010286 6.948571-9.252571 12.8-9.398858h78.555429c5.12 0.621714 9.618286 3.730286 11.958857 8.301715l33.28 58.258285h148.882286a17.188571 17.188571 0 0 1 14.043428 7.826286l40.045715 72.301714a25.161143 25.161143 0 0 1-3.657143 20.772572l-31.232 59.830857z m-57.197714 65.572571l37.924572 70.217143v-0.073143h77.531428l-78.555428-137.801142 39.497142-69.778286h-312.137142l40.045714-70.217143-38.985143-68.096-77.531429 138.386286H277.577143l156.086857 274.102857H354.121143L316.635429 717.165714h156.013714l42.642286 70.217143 156.123428-275.090286z m-62.902857-58.770285l-97.353143 156.013714-97.755428-156.013714h195.072z" fill="#605BEC" p-id="15290"></path></svg>